inDegrees=no
num_controls=7
num_derivatives=13
num_iterations=98
num_multipliers=7
num_parameters=0
num_slacks=7
num_states=26
objective=0.477827
objective_accelerations=0.043411
objective_balance=0.003854
objective_effort=0.040279
objective_height=0.384579
objective_ligament=0.005704
solver_duration=1249.554245
status=Solve_Succeeded
success=true
DataType=double
version=3
OpenSimVersion=4.5
endheader
time	/jointset/ground_pelvis/pelvis_tilt/value	/jointset/ground_pelvis/pelvis_tx/value	/jointset/ground_pelvis/pelvis_ty/value	/jointset/hip_l/hip_flexion_l/value	/jointset/hip_l/hip_adduction_l/value	/jointset/hip_l/hip_rotation_l/value	/jointset/back/lumbar_extension/value	/jointset/patellofemoral_l/patellar_flexion_l/value	/jointset/knee_l/knee_flexion_l/value	/jointset/knee_l/knee_adduction_l/value	/jointset/knee_l/knee_rotation_l/value	/jointset/ankle_l/ankle_angle_l/value	/jointset/subtalar_l/subtalar_angle_l/value	/jointset/ground_pelvis/pelvis_tilt/speed	/jointset/ground_pelvis/pelvis_tx/speed	/jointset/ground_pelvis/pelvis_ty/speed	/jointset/hip_l/hip_flexion_l/speed	/jointset/hip_l/hip_adduction_l/speed	/jointset/hip_l/hip_rotation_l/speed	/jointset/back/lumbar_extension/speed	/jointset/patellofemoral_l/patellar_flexion_l/speed	/jointset/knee_l/knee_flexion_l/speed	/jointset/knee_l/knee_adduction_l/speed	/jointset/knee_l/knee_rotation_l/speed	/jointset/ankle_l/ankle_angle_l/speed	/jointset/subtalar_l/subtalar_angle_l/speed	/forceset/tau_hip_flexion_l	/forceset/tau_hip_adduction_l	/forceset/tau_hip_rotation_l	/forceset/tau_knee_flexion_l	/forceset/tau_ankle_angle_l	/forceset/tau_subtalar_angle_l	/forceset/tau_lumbar_extension	lambda_cid13_p0	lambda_cid13_p1	lambda_cid13_p2	lambda_cid13_p3	lambda_cid13_p4	lambda_cid13_p5	lambda_cid14_p0	/jointset/ground_pelvis/pelvis_tilt/accel	/jointset/ground_pelvis/pelvis_tx/accel	/jointset/ground_pelvis/pelvis_ty/accel	/jointset/hip_l/hip_flexion_l/accel	/jointset/hip_l/hip_adduction_l/accel	/jointset/hip_l/hip_rotation_l/accel	/jointset/back/lumbar_extension/accel	/jointset/patellofemoral_l/patellar_flexion_l/accel	/jointset/knee_l/knee_flexion_l/accel	/jointset/knee_l/knee_adduction_l/accel	/jointset/knee_l/knee_rotation_l/accel	/jointset/ankle_l/ankle_angle_l/accel	/jointset/subtalar_l/subtalar_angle_l/accel	gamma_cid13_p0	gamma_cid13_p1	gamma_cid13_p2	gamma_cid13_p3	gamma_cid13_p4	gamma_cid13_p5	gamma_cid14_p0
0	-0.03680362844588658	0.05666909687798785	0.9203419306532217	0.3085816938045678	-0.2956345877587669	-0.3014807139186824	-0.3879492264334186	0.2499269421184964	0.2499269421184919	-0.1745327734905919	-0.1744085187574392	-0.0008036623358878681	0.0004420803815758224	0	0	0	0	0	0	0	0	0	0	0	0	0	0.07252575563055848	-0.01209308210518256	-0.02011660609721076	-0.2415310175263908	0.1966615387948068	-0.0478549783279275	0.00155330797721752	18.42375394188109	14.63856111197417	0.5460943655875572	12.14272414743388	-621.5384514631614	-44.1068976675748	-23.1926937024411	-1.042152767033798	-2.09384736050204	-0.9262722929557723	9.31169026932584	-0.8448073001824263	3.273328705764723	-7.379898932957398	9.237388299818029	9.237388299813666	1.213906712163014	-0.08685060653137236	1.466980764424511	-0.4082938419850646	1.399424878091795e-09	1.426118593169905e-07	7.65010527001992e-08	-1.792642785805525e-08	1.461981240300839e-07	-1.003633345462191e-09	-3.969021032694045e-10
0.01	-0.03685134560237627	0.05656627906983533	0.9202967798187341	0.3090342153725779	-0.2956767248006943	-0.3013168179070732	-0.3883147838748706	0.2503790778753776	0.2503790778753717	-0.174475306446457	-0.1744095879367623	-0.0007318844772560731	0.0004212261090554026	-0.009433969368329196	-0.02039486542802361	-0.008980131574587311	0.08989821745281694	-0.008359651610780111	0.03260387477083755	-0.07241426261257053	0.0899591324851185	0.08995913248511651	0.01146817029956477	-0.0002017569677617024	0.01437535679830826	-0.004092226729183587	0.06312584200123833	-0.01269029116428961	-0.01886028954730568	-0.2325184984480902	0.1857140333399172	-0.04093514146459162	0.01004803396388176	15.01677961759504	12.19623716376596	0.9738186459431214	12.41378326837788	-625.1607130180118	-48.293640802077	-23.19795046969607	-0.877609362561046	-1.987005289182669	-0.8763490516542033	8.737966253192909	-0.8214149492016141	3.227613323681048	-7.067606073492622	8.804972968627657	8.804972968630278	1.109518368694911	0.01498199883880082	1.425784925394774	-0.3979246611349496	-2.913870522363435e-08	1.46135875535571e-07	1.379964227724245e-07	1.647452696837745e-08	1.010603605284037e-08	-4.098912651221078e-08	-6.29112754819055e-09
0.02	-0.03699012052072137	0.0562645727763562	0.920163334576112	0.3103675348691051	-0.2958004325302649	-0.3008321438555688	-0.3893835671720657	0.2517167644062643	0.2517167644062649	-0.1743039084633539	-0.1744123106376162	-0.0005157586930694835	0.0003618020546931529	-0.01821155236977811	-0.03977769706531899	-0.01765888162693636	0.1761595857029631	-0.01631413752859508	0.06415560797918618	-0.1406451711485522	0.1771101548009933	0.1771101548010189	0.0227861877927968	-0.0003307043060292717	0.02886958511104685	-0.007713956368366096	0.05372592837197381	-0.01328750022339249	-0.01760397299739406	-0.2235059793697614	0.1747665278850378	-0.03401530460124787	0.01854275995058172	11.68176761227328	9.745003406086205	1.398748314349284	12.58036293646407	-627.7121970178966	-52.388139570882	-23.21335096650477	-0.9108754936576038	-1.891440602356506	-0.8659959885081222	8.58432042879169	-0.763774161589402	3.062900393266931	-6.543228117639553	8.675766265969322	8.675766265970855	1.183876150896464	-0.07228868063256672	1.490755067310452	-0.3141944239848963	-5.967683532536049e-08	1.496598917541514e-07	1.994917928446499e-07	5.087548179481015e-08	-1.259860519244031e-07	-8.097461967895937e-08	-1.21853529931117e-08
0.03	-0.03721435570043024	0.05577364455916923	0.9199441811297464	0.3125476089409369	-0.2960017977406439	-0.3000371639450082	-0.3911164063772971	0.2539129646729877	0.2539129646729909	-0.1740203140333224	-0.1744162679060655	-0.0001544782865106144	0.0002682269386670651	-0.02659525922244513	-0.05828392269345368	-0.02615925293395958	0.2594370894321825	-0.02391269612805349	0.09469477731477967	-0.2055219212756142	0.2617466541943385	0.2617466541943595	0.03386231541796738	-0.0004537018253063656	0.04336325316530708	-0.01096092402780298	0.04920242733251502	-0.01280651194116206	-0.01715918348899399	-0.2212083518014351	0.1729175294989952	-0.03220909309235633	0.02289582511092189	11.12796647613073	9.061591748027091	1.503066041692054	11.80323381340291	-628.9525470820791	-53.23500051530399	-23.23818250623649	-0.7960907794460486	-1.811599677451238	-0.8402002420458105	8.136735099281454	-0.7510129026624083	3.027561924974487	-6.399786166678498	8.300107584559152	8.300107584557567	1.058968238711161	0.01878182795828063	1.425186548781914	-0.3239729089314879	-8.06972273980472e-08	1.235721372535477e-07	2.595611771270826e-07	6.773389219354199e-08	-2.08804832090137e-07	-1.225450519423651e-07	-2.167591989191802e-08
0.04	-0.0375212224483471	0.05510137685881881	0.9196403954622612	0.3155479120009108	-0.2962777717757233	-0.298941164996836	-0.393485990625089	0.2569440330953529	0.256944033095351	-0.1736280608929533	-0.1744212377265977	0.0003510415754508993	0.0001433771516449068	-0.03473786601007117	-0.07604559369800783	-0.03458532585086694	0.3402053833331828	-0.03123590246904147	0.1243594155011295	-0.2679941796602179	0.3440837859293641	0.3440837859293739	0.04451792985848692	-0.0005332147232412905	0.05771747619148942	-0.01396889056757777	0.04467892629300242	-0.01232552365894705	-0.0167143939806078	-0.2189107242331462	0.1710685311129343	-0.03040288158348668	0.02724889027123866	10.63996631144652	8.370096219470167	1.60474608693835	10.92221977340156	-629.2185418618129	-53.99545041435313	-23.27162762228826	-0.8626554806492728	-1.742529677640503	-0.8511363104849531	8.082478463147885	-0.7087037098953201	2.887994163418183	-6.06232976914783	8.215892734305422	8.215892734305633	1.099773513966266	-0.06359175636415314	1.462866061694756	-0.2663942000525144	-1.015213774495166e-07	9.687383077935254e-08	3.196011596406537e-07	8.423060064531095e-08	-2.905251935381078e-07	-1.641481633624029e-07	-3.124063816090753e-08
0.05	-0.03790839599288995	0.05425538596967944	0.9192525946308562	0.3193431950579889	-0.2966253945548328	-0.2975536311735184	-0.3964670470512177	0.2607868098304475	0.2607868098304374	-0.1731311697088079	-0.1744273183632155	0.0009994784693887818	-1.011765173103763e-05	-0.04263873252217899	-0.09301104499913518	-0.04296997517774518	0.4183769020709805	-0.03822506709335834	0.1529814943165807	-0.3277233245614516	0.4240501766407532	0.4240501766407643	0.05479278779673613	-0.0006724895059519571	0.07195044301449759	-0.01667110324971422	0.03806902420856363	-0.0116568477175309	-0.01594855830510088	-0.2147316257374668	0.1664599093149653	-0.02736939168193657	0.03324090002954418	9.280323028795157	7.287793322552487	1.780632250752732	10.46439379931327	-630.0651863090879	-55.3614670560192	-23.3126647444379	-0.7450903713533885	-1.652305007580855	-0.8314582213404152	7.613328319286851	-0.6845375470800957	2.824391024185058	-5.854139699779537	7.823810897813911	7.823810897813988	0.9812605274098956	0.0125213338179544	1.400590528388826	-0.2633413281734064	-1.170667093255788e-07	7.099761708634168e-08	3.59478584824887e-07	9.842887851191872e-08	-3.589677494581545e-07	-1.936299363697678e-07	-3.785622991538698e-08
0.06	-0.03837283582953269	0.05324399013728214	0.9187810815106721	0.323905961250478	-0.2970410119218609	-0.2958848613053302	-0.4000305814961943	0.2654166102043005	0.2654166102042939	-0.1725335462265495	-0.1744344684130597	0.001789660738713492	-0.000188875887104213	-0.0501911244287345	-0.1091265823495945	-0.05132778360669468	0.4937020104164249	-0.04483482005288601	0.1806066244750896	-0.3844897834294047	0.5014885136824716	0.501488513682483	0.06466438948121088	-0.0007470973669627405	0.08606655126890342	-0.01902157696701922	0.031459122124116	-0.01098817177611044	-0.01518272262954116	-0.2105525272418026	0.1618512875169947	-0.02433590178038333	0.03923290978784381	7.979759806529746	6.197908439577415	1.954571860993129	9.904532741785484	-630.0389563180685	-56.65024828360874	-23.36011150816456	-0.7929605595386838	-1.572546887507003	-0.8457681308992075	7.51319638467722	-0.6328213769374769	2.688604432029706	-5.469792562491628	7.710282000371263	7.710282000371324	1.019122263211383	-0.05065837202419279	1.439494347974186	-0.196046407086259	-1.323897751732028e-07	4.515601782622282e-08	3.985070602268325e-07	1.125303803538881e-07	-4.268512398822885e-07	-2.226013372334413e-07	-4.434764792188705e-08
